<?xml version="1.0" encoding="UTF-8" standalone="no"?>
<!-- Creator: CorelDRAW X6 -->

<svg
   xmlns:dc="http://purl.org/dc/elements/1.1/"
   xmlns:cc="http://creativecommons.org/ns#"
   xmlns:rdf="http://www.w3.org/1999/02/22-rdf-syntax-ns#"
   xmlns:svg="http://www.w3.org/2000/svg"
   xmlns="http://www.w3.org/2000/svg"
   xmlns:sodipodi="http://sodipodi.sourceforge.net/DTD/sodipodi-0.dtd"
   xmlns:inkscape="http://www.inkscape.org/namespaces/inkscape"
   xml:space="preserve"
   width="500.66556"
   height="226.45535"
   version="1.1"
   style="clip-rule:evenodd;fill-rule:evenodd;image-rendering:optimizeQuality;shape-rendering:geometricPrecision;text-rendering:geometricPrecision"
   viewBox="0 0 14129.895 6391.0735"
   id="svg3336"
   inkscape:version="0.91 r13725"
   sodipodi:docname="logo1.svg"><metadata
     id="metadata3368"><rdf:RDF><cc:Work
         rdf:about=""><dc:format>image/svg+xml</dc:format><dc:type
           rdf:resource="http://purl.org/dc/dcmitype/StillImage" /><dc:title></dc:title></cc:Work></rdf:RDF></metadata><sodipodi:namedview
     pagecolor="#ffffff"
     bordercolor="#666666"
     borderopacity="1"
     objecttolerance="10"
     gridtolerance="10"
     guidetolerance="10"
     inkscape:pageopacity="0"
     inkscape:pageshadow="2"
     inkscape:window-width="1920"
     inkscape:window-height="1033"
     id="namedview3366"
     showgrid="false"
     fit-margin-top="0"
     fit-margin-left="0"
     fit-margin-right="0"
     fit-margin-bottom="0"
     inkscape:zoom="0.82291059"
     inkscape:cx="85.798116"
     inkscape:cy="-105.15225"
     inkscape:window-x="-8"
     inkscape:window-y="16"
     inkscape:window-maximized="1"
     inkscape:current-layer="svg3336"
     units="px" /><defs
     id="defs3338"><style
       type="text/css"
       id="style3340"><![CDATA[
    .str0 {stroke:#2B2A29;stroke-width:20}
    .fil1 {fill:#2B2A29}
    .fil0 {fill:#2B2A29;fill-rule:nonzero}
   ]]></style></defs><g
     id="Слой_x0020_1"
     transform="matrix(1.1287661,0,0,1.1287661,-4589.563,-11163.497)"><metadata
       id="CorelCorpID_0Corel-Layer" /><g
       id="_547362192"><path
         class="fil0"
         d="m 14429,12578 c 0,58 4,100 12,126 7,26 24,45 50,55 27,10 70,15 131,15 174,0 305,-27 393,-82 53,-35 96,-83 127,-142 31,-59 46,-122 46,-186 0,-106 -38,-201 -113,-286 -76,-85 -167,-150 -273,-194 l -373,140 0,554 z m 0,-669 c 79,-23 162,-52 248,-86 86,-35 162,-78 229,-131 68,-53 101,-111 101,-174 0,-63 -30,-102 -90,-119 -61,-16 -134,-25 -221,-25 -136,0 -216,17 -243,50 -16,22 -24,74 -24,156 l 0,329 z m 474,-648 c 70,0 132,4 188,12 56,8 105,27 147,58 42,31 63,78 63,140 0,44 -11,85 -35,122 -23,37 -52,69 -88,97 -37,28 -79,55 -127,81 -49,26 -88,47 -118,64 94,30 182,70 262,121 81,50 147,113 198,189 51,75 77,159 77,253 0,98 -25,185 -75,259 -50,75 -119,129 -210,163 -79,30 -161,49 -248,56 -86,8 -193,11 -321,11 l -620,0 0,-22 c 49,-7 85,-23 109,-50 22,-27 37,-57 42,-93 6,-35 9,-82 10,-141 l 0,-997 c -2,-92 -12,-163 -29,-212 -19,-49 -62,-79 -132,-89 l 0,-22 907,0 z"
         id="path3345"
         inkscape:connector-curvature="0"
         style="fill:#2b2a29;fill-rule:nonzero" /><path
         class="fil0"
         d="m 13866,11728 -19,7 c -33,-78 -82,-145 -147,-200 -65,-55 -139,-95 -220,-121 -82,-26 -168,-40 -256,-40 -61,0 -107,5 -139,15 -31,10 -54,30 -68,58 -13,30 -21,74 -21,135 l 0,244 191,0 55,0 c 67,0 121,-9 160,-28 39,-19 59,-59 59,-120 l 22,-8 97,554 -20,8 c -21,-71 -46,-126 -77,-166 -30,-40 -65,-69 -105,-86 -40,-17 -83,-28 -129,-32 -45,-3 -110,-6 -193,-6 l -60,0 0,560 c 0,76 5,131 13,166 9,35 31,61 67,79 35,18 94,27 175,27 338,0 510,-109 667,-427 l 24,7 -109,565 c -17,-21 -54,-32 -110,-32 l -1159,0 0,-22 c 49,-8 85,-25 109,-52 23,-27 38,-57 43,-92 6,-35 9,-82 9,-140 l 0,-997 c 0,-89 -9,-159 -28,-209 -19,-50 -63,-81 -133,-92 l 0,-22 1057,0 c 65,0 109,-10 135,-30 l 110,497 z"
         id="path3347"
         inkscape:connector-curvature="0"
         style="fill:#2b2a29;fill-rule:nonzero" /><path
         class="fil0"
         d="m 11754,11374 c -118,0 -212,48 -282,144 -55,74 -108,167 -157,278 -50,110 -91,234 -124,370 -32,136 -48,271 -48,405 0,73 18,138 53,195 34,57 90,90 167,99 l 0,22 -440,0 c 0,-66 6,-151 18,-254 12,-104 33,-223 65,-357 31,-135 75,-272 132,-411 56,-140 126,-269 208,-387 21,-29 32,-63 32,-101 0,-56 -25,-87 -77,-94 l 0,-22 1088,0 0,22 c -70,11 -115,42 -133,92 -19,50 -28,120 -28,209 l 0,997 c 0,58 3,105 9,141 5,35 20,66 43,92 23,27 59,44 109,51 l 0,22 -596,0 0,-19 c 51,-6 87,-23 111,-51 23,-28 38,-61 44,-99 6,-38 8,-89 8,-152 l 0,-974 c 0,-79 -12,-136 -35,-169 -24,-32 -80,-49 -167,-49 z"
         id="path3349"
         inkscape:connector-curvature="0"
         style="fill:#2b2a29;fill-rule:nonzero" /><path
         class="fil0"
         d="m 9557,11568 c 0,-86 -9,-152 -27,-199 -18,-48 -62,-76 -132,-86 l 0,-22 1029,0 c 47,0 81,-2 100,-5 20,-4 36,-13 46,-27 l 121,490 -22,7 c -46,-118 -117,-204 -211,-257 -95,-53 -219,-79 -373,-79 -84,0 -143,1 -177,5 -34,3 -56,10 -68,22 -11,11 -17,32 -17,61 0,7 1,22 2,46 0,25 1,44 1,60 l 0,239 c 213,0 394,27 544,83 150,55 262,129 336,220 74,91 111,189 111,294 0,312 -228,467 -685,467 l -739,0 0,-22 c 49,-7 85,-24 109,-50 23,-27 38,-58 43,-93 6,-36 9,-83 9,-141 l 0,-1013 z m 272,1020 0,62 c 0,43 4,73 12,89 8,15 25,25 52,29 26,4 76,6 148,6 103,0 191,-16 264,-48 75,-31 131,-75 170,-130 39,-55 59,-116 59,-183 0,-82 -25,-160 -73,-233 -48,-73 -125,-132 -230,-178 -106,-46 -239,-69 -402,-69 l 0,655 z"
         id="path3351"
         inkscape:connector-curvature="0"
         style="fill:#2b2a29;fill-rule:nonzero" /><path
         class="fil0"
         d="m 8484,12497 -578,-947 c -52,-87 -95,-152 -130,-195 -35,-42 -75,-66 -120,-72 l 0,-22 541,0 0,22 c -34,7 -52,29 -52,64 0,43 33,121 99,233 l 368,638 268,-641 c 32,-77 49,-139 49,-187 0,-62 -29,-98 -87,-107 l 0,-22 440,0 0,22 c -50,7 -90,31 -120,73 -29,43 -61,104 -97,184 l -423,947 c -116,264 -256,408 -417,432 -28,6 -53,8 -77,8 -123,0 -234,-44 -334,-134 l 120,-290 102,176 0,0 c 33,67 92,100 179,100 106,-14 195,-108 269,-282 z"
         id="path3353"
         inkscape:connector-curvature="0"
         style="fill:#2b2a29;fill-rule:nonzero" /><path
         class="fil1"
         d="m 5620,11398 -435,0 0,198 435,0 0,220 -435,0 0,198 435,0 0,390 c 0,158 -37,279 -92,322 -45,36 -176,58 -347,64 l 0,98 1381,0 0,-98 c -171,-8 -281,-27 -331,-55 -82,-46 -123,-161 -123,-306 l 0,-415 950,0 0,-198 -950,0 0,-220 c 226,0 342,-2 450,-6 265,-9 509,-57 697,-213 195,-162 303,-408 303,-667 0,-283 -130,-496 -339,-637 -182,-123 -426,-183 -732,-183 l -1306,0 0,102 c 200,12 348,49 391,115 28,42 48,187 48,399 l 0,892 z m 1427,-684 c 0,-210 -46,-329 -141,-451 -108,-139 -268,-199 -476,-199 -88,0 -137,0 -184,12 -113,29 -97,26 -138,39 l 0,1283 251,0 c 244,0 420,-44 527,-158 107,-113 161,-288 161,-526 z"
         id="path3355"
         inkscape:connector-curvature="0"
         style="fill:#2b2a29" /><polygon
         class="fil0 str0"
         points="13414,11019 13622,11019 13206,10220 12790,11019 12998,11019 "
         id="polygon3357"
         style="fill:#2b2a29;fill-rule:nonzero;stroke:#2b2a29;stroke-width:20" /></g><polygon
       class="fil1 str0"
       points="16574,13531 16574,13625 4076,13625 4076,13531 "
       id="polygon3359"
       style="fill:#2b2a29;stroke:#2b2a29;stroke-width:20" /><g
       id="_547361400"><path
         class="fil0"
         d="m 7254,14653 c -31,0 -63,13 -97,37 -34,25 -64,56 -92,92 -28,37 -52,75 -70,115 -18,39 -27,74 -27,103 0,13 3,25 10,34 7,10 17,14 31,14 18,0 39,-6 61,-19 22,-13 44,-30 66,-50 22,-20 43,-43 62,-68 20,-25 37,-49 52,-74 15,-25 28,-49 37,-71 9,-22 14,-41 14,-55 0,-18 -3,-32 -9,-42 -7,-11 -19,-16 -38,-16 z m 229,-12 -261,432 3,3 c 22,-9 44,-21 67,-36 22,-15 45,-32 67,-51 21,-19 42,-38 63,-59 20,-21 38,-41 55,-61 12,-14 20,-24 23,-28 3,-4 6,-6 9,-6 5,0 7,3 7,8 0,4 -4,10 -11,19 -7,8 -23,24 -45,49 -42,47 -85,87 -131,121 -46,34 -85,56 -117,68 -9,19 -22,44 -39,74 -17,30 -37,62 -59,96 -23,34 -47,67 -74,100 -26,33 -53,64 -80,90 -27,27 -54,49 -81,67 -27,17 -52,25 -76,25 -23,0 -41,-6 -56,-19 -14,-13 -22,-33 -22,-60 0,-31 10,-61 28,-89 19,-28 46,-56 81,-85 36,-29 79,-59 129,-90 51,-30 109,-64 175,-102 11,-26 25,-55 41,-88 16,-34 38,-78 68,-134 l -4,-3 c -11,15 -26,34 -43,55 -18,21 -37,41 -58,61 -22,19 -44,35 -67,49 -22,13 -45,20 -66,20 -37,0 -62,-13 -76,-37 -14,-25 -21,-58 -21,-98 0,-20 2,-36 6,-47 3,-12 5,-23 5,-34 0,-3 -2,-5 -6,-5 -5,0 -9,2 -11,5 -2,4 -4,6 -6,6 -5,0 -7,-3 -7,-9 0,-3 3,-7 9,-14 6,-6 19,-22 41,-46 18,-18 39,-37 63,-55 25,-18 50,-34 77,-49 27,-14 54,-26 81,-36 27,-9 52,-14 75,-14 25,0 44,6 59,18 14,11 22,30 22,57 0,23 -2,41 -7,55 l 4,3 c 10,-17 21,-35 32,-56 12,-20 23,-41 33,-63 l 101,-7 z m -717,833 c 0,18 2,32 7,43 5,11 17,17 38,17 20,0 40,-8 61,-24 22,-15 43,-35 65,-60 22,-24 43,-51 63,-82 20,-31 39,-61 56,-90 17,-30 32,-58 44,-84 11,-25 20,-46 25,-62 -26,16 -59,35 -99,59 -41,24 -80,51 -119,81 -38,30 -71,62 -99,97 -28,34 -42,69 -42,105 z m 875,-407 c -19,0 -36,-4 -49,-13 -13,-8 -23,-18 -30,-31 -7,-13 -12,-28 -15,-46 -2,-17 -4,-34 -4,-52 0,-12 1,-24 3,-36 1,-12 3,-24 5,-37 -2,0 -3,1 -4,3 -2,1 -3,2 -5,2 -4,0 -6,-3 -6,-8 0,-3 1,-6 4,-9 3,-3 10,-11 21,-24 20,-25 44,-49 70,-71 25,-22 52,-41 80,-58 27,-16 55,-29 84,-39 28,-9 56,-14 83,-14 24,0 41,8 51,23 11,15 16,33 16,54 0,18 -2,32 -5,42 l 3,3 c 14,-22 24,-40 32,-55 8,-14 14,-25 20,-33 5,-8 10,-14 14,-17 5,-4 11,-6 20,-6 l 74,-3 c -7,8 -17,23 -31,43 -14,20 -30,43 -46,68 -17,26 -34,53 -51,81 -17,28 -33,55 -47,80 -15,26 -27,49 -35,69 -9,20 -14,34 -14,43 0,15 9,22 27,22 24,0 55,-18 94,-53 39,-36 81,-81 127,-133 9,-12 15,-19 17,-21 2,-3 4,-4 6,-4 3,0 6,1 7,3 2,2 2,4 2,6 0,1 -2,5 -8,12 -6,6 -13,14 -21,24 -8,9 -17,19 -27,31 -10,11 -20,22 -29,31 -36,37 -69,67 -98,89 -29,23 -54,34 -75,34 -21,0 -37,-7 -50,-22 -12,-14 -18,-43 -18,-85 0,-6 0,-11 1,-15 0,-5 0,-9 0,-13 -11,11 -25,24 -41,40 -16,16 -33,30 -50,44 -18,14 -36,26 -53,36 -18,10 -34,15 -49,15 z m -35,-69 c 0,15 2,27 8,36 6,10 15,14 27,14 23,0 51,-12 83,-36 32,-25 63,-55 93,-90 30,-35 56,-72 77,-111 21,-39 32,-73 32,-102 0,-15 -4,-29 -12,-40 -7,-10 -20,-16 -36,-16 -31,0 -63,13 -96,38 -32,26 -62,56 -88,93 -26,36 -47,74 -63,113 -17,40 -25,73 -25,101 z m 776,-14 3,4 c 26,-18 47,-37 65,-56 18,-20 33,-38 47,-53 16,-18 26,-30 29,-35 3,-6 7,-9 10,-9 5,0 7,3 7,9 0,3 -6,12 -20,28 -13,16 -28,33 -43,50 -43,48 -83,84 -122,108 -38,25 -79,37 -123,37 -17,0 -31,-1 -40,-2 -9,-2 -19,-7 -30,-15 -6,-5 -12,-13 -17,-24 -5,-11 -7,-21 -7,-29 0,-29 12,-44 38,-44 9,0 16,3 23,7 7,5 10,11 10,18 0,9 -1,14 -3,17 -2,3 -5,6 -8,8 -3,2 -6,5 -8,7 -2,3 -3,8 -3,15 0,15 9,23 27,23 18,0 37,-9 56,-28 18,-18 35,-41 50,-67 15,-27 28,-55 37,-84 9,-30 14,-55 14,-76 0,-37 0,-70 1,-98 0,-28 3,-44 8,-48 l -3,-3 c -5,3 -15,13 -31,30 -16,17 -33,37 -52,58 -19,22 -38,44 -56,65 -18,21 -32,37 -41,47 -7,9 -11,13 -14,13 -5,0 -7,-2 -7,-6 0,-6 6,-14 18,-27 12,-12 29,-32 51,-59 9,-11 21,-25 35,-41 14,-16 28,-32 42,-47 14,-15 27,-28 38,-39 11,-12 18,-18 20,-19 1,0 3,-3 5,-8 2,-5 5,-11 9,-16 4,-6 10,-11 16,-16 6,-4 13,-7 22,-7 17,0 26,8 26,24 0,14 -7,24 -20,31 -14,6 -28,12 -42,17 -2,8 -4,14 -5,18 -1,3 -1,9 -1,18 0,29 1,53 5,73 4,19 7,37 11,53 4,15 7,30 11,43 3,14 5,28 5,44 0,18 -4,35 -12,51 -9,16 -19,30 -31,44 l 0,-4 z m 552,-639 96,-6 -101,155 182,0 c 5,0 8,4 8,10 0,6 -3,9 -8,9 l -193,0 c -8,15 -21,36 -39,63 -17,28 -37,58 -59,92 -22,34 -44,69 -68,106 -23,38 -44,73 -63,105 -20,33 -35,63 -48,89 -12,27 -18,45 -18,57 0,15 9,23 29,23 24,0 50,-9 77,-29 28,-19 59,-46 94,-81 20,-20 36,-36 48,-49 12,-13 21,-24 28,-31 6,-8 11,-14 14,-17 2,-4 5,-6 7,-6 5,0 7,3 7,9 0,1 -2,6 -8,13 -6,7 -13,15 -21,25 -8,9 -18,19 -27,29 -10,11 -19,20 -28,28 -47,48 -86,81 -116,100 -30,19 -56,28 -78,28 -27,-1 -46,-10 -57,-26 -11,-16 -16,-33 -16,-50 0,-22 3,-44 9,-65 6,-21 16,-43 28,-67 13,-23 28,-48 46,-74 18,-27 39,-57 62,-90 l -4,-3 c -14,18 -28,34 -42,50 -14,15 -32,35 -52,59 -4,4 -9,10 -15,17 -7,7 -13,15 -20,22 -6,7 -12,14 -17,19 -5,6 -8,9 -9,9 -5,0 -8,-2 -8,-6 0,-1 1,-3 2,-6 1,-2 4,-6 8,-12 5,-5 12,-12 20,-22 9,-10 21,-24 37,-41 11,-13 26,-29 43,-49 17,-19 35,-41 54,-65 19,-24 39,-49 59,-75 21,-27 39,-53 57,-79 l -56,0 c -5,0 -8,-3 -8,-9 0,-6 2,-10 7,-10 l 65,0 92,-149 z m 20,513 c -6,0 -8,-2 -8,-7 0,-2 3,-7 8,-14 6,-8 14,-16 23,-27 9,-10 19,-21 30,-32 11,-12 21,-23 31,-35 33,-36 62,-63 88,-81 25,-19 49,-28 70,-28 20,0 35,8 45,23 11,15 16,32 16,51 0,15 -4,33 -11,52 -7,20 -16,40 -26,60 -11,19 -22,38 -33,56 -11,17 -21,31 -28,42 l 3,3 c 42,-48 79,-86 112,-115 33,-29 53,-54 61,-75 8,-23 20,-45 37,-65 17,-21 38,-32 65,-32 25,0 38,9 38,25 0,16 -9,31 -27,45 -19,14 -39,29 -60,46 -22,16 -42,34 -60,54 -18,20 -27,43 -27,70 0,16 4,28 14,38 10,10 22,15 37,15 26,0 49,-10 70,-31 17,-18 30,-32 37,-43 7,-11 13,-16 16,-16 6,0 9,2 9,7 0,3 -5,9 -14,21 -9,11 -18,21 -25,29 -15,18 -31,30 -48,38 -17,7 -32,10 -47,10 -17,0 -33,-5 -47,-16 -14,-11 -21,-26 -21,-44 0,-18 2,-34 8,-48 5,-14 13,-27 23,-39 l -3,-3 c -41,37 -80,78 -118,122 -39,45 -78,93 -117,144 l -98,9 c 39,-63 74,-118 103,-163 30,-45 55,-82 75,-112 20,-31 36,-55 46,-74 10,-18 16,-33 16,-43 0,-15 -9,-22 -27,-22 -11,0 -27,6 -46,16 -19,11 -44,33 -75,65 -24,25 -43,45 -58,61 -14,17 -25,29 -33,39 -8,9 -14,15 -17,19 -4,4 -6,5 -7,5 z m 983,-116 c 0,15 -3,32 -8,50 -5,18 -12,36 -21,53 -9,17 -19,34 -30,50 -11,16 -22,30 -33,41 4,2 10,3 17,3 27,0 53,-7 78,-21 25,-14 47,-32 67,-55 10,-11 16,-19 19,-22 3,-3 5,-4 7,-4 5,0 8,2 8,7 0,3 -2,6 -6,11 -5,6 -16,17 -33,36 -20,21 -43,37 -69,49 -27,12 -55,18 -85,18 -11,0 -17,-1 -20,-2 -24,27 -52,53 -85,76 -33,23 -71,35 -114,35 -32,0 -55,-13 -72,-37 -17,-25 -25,-59 -25,-102 0,-28 1,-47 4,-57 3,-10 4,-18 4,-23 0,-7 -2,-10 -5,-10 -6,0 -12,4 -17,13 -5,8 -9,12 -11,12 -6,0 -9,-2 -9,-8 0,-2 3,-6 8,-14 6,-7 14,-15 23,-25 9,-9 19,-19 30,-29 10,-10 20,-20 29,-30 46,-43 91,-75 135,-94 45,-19 85,-29 120,-29 30,0 53,11 69,31 16,20 25,46 25,77 z m -35,-19 c 0,-19 -4,-35 -12,-49 -8,-14 -22,-21 -42,-21 -27,0 -56,11 -86,34 -30,23 -57,52 -82,86 -25,34 -46,71 -62,110 -16,40 -24,76 -24,108 0,21 4,36 12,45 8,8 17,12 29,12 31,0 62,-10 94,-31 31,-21 60,-47 85,-78 26,-32 47,-67 63,-105 17,-39 25,-76 25,-111 z m 1361,-593 c -101,160 -186,293 -254,400 -68,107 -123,194 -165,262 -42,68 -72,120 -89,156 -18,36 -27,62 -27,80 0,5 2,10 7,14 5,4 11,6 18,6 24,0 50,-10 79,-29 28,-20 62,-50 101,-89 36,-35 58,-60 68,-74 10,-14 17,-21 21,-21 5,0 8,3 8,8 0,1 -2,4 -6,9 -4,5 -10,12 -16,19 -6,7 -13,14 -19,22 -7,7 -13,14 -18,20 -46,49 -87,86 -123,113 -36,27 -70,41 -100,41 -27,0 -45,-8 -53,-23 -9,-16 -14,-34 -14,-55 0,-23 4,-44 10,-63 6,-19 16,-40 29,-62 14,-22 30,-48 50,-78 20,-29 43,-67 70,-111 l -3,-3 c -13,15 -27,32 -42,50 -15,17 -35,40 -61,68 -14,17 -26,30 -35,40 -8,10 -15,17 -21,23 -5,6 -8,9 -11,11 -2,1 -4,2 -6,2 -4,0 -6,-2 -6,-8 0,-3 10,-15 29,-35 19,-21 44,-49 74,-85 31,-36 65,-78 103,-128 38,-49 76,-104 113,-164 l 187,-305 102,-11 z m 218,612 c 0,15 -3,32 -8,50 -5,18 -12,36 -21,53 -9,17 -19,34 -30,50 -10,16 -22,30 -33,41 4,2 10,3 17,3 27,0 53,-7 78,-21 25,-14 47,-32 67,-55 10,-11 17,-19 19,-22 3,-3 5,-4 7,-4 5,0 8,2 8,7 0,3 -2,6 -6,11 -4,6 -15,17 -33,36 -20,21 -43,37 -69,49 -27,12 -55,18 -85,18 -10,0 -17,-1 -20,-2 -24,27 -52,53 -85,76 -33,23 -71,35 -114,35 -31,0 -55,-13 -72,-37 -16,-25 -25,-59 -25,-102 0,-28 2,-47 4,-57 3,-10 4,-18 4,-23 0,-7 -1,-10 -5,-10 -6,0 -12,4 -17,13 -5,8 -9,12 -11,12 -6,0 -9,-2 -9,-8 0,-2 3,-6 9,-14 5,-7 13,-15 22,-25 10,-9 19,-19 30,-29 10,-10 20,-20 29,-30 46,-43 91,-75 136,-94 44,-19 84,-29 119,-29 31,0 54,11 70,31 16,20 24,46 24,77 z m -34,-19 c 0,-19 -5,-35 -13,-49 -8,-14 -22,-21 -42,-21 -27,0 -55,11 -85,34 -31,23 -58,52 -83,86 -25,34 -45,71 -61,110 -16,40 -24,76 -24,108 0,21 3,36 11,45 8,8 18,12 29,12 31,0 62,-10 94,-31 32,-21 60,-47 86,-78 25,-32 46,-67 63,-105 16,-39 25,-76 25,-111 z m 450,-89 c -47,77 -86,138 -115,182 -30,44 -53,78 -69,104 -16,25 -27,45 -33,58 -5,14 -8,28 -8,44 0,9 3,16 8,20 6,4 12,6 18,6 20,0 47,-13 80,-40 34,-27 70,-61 107,-101 37,-41 74,-85 110,-133 35,-47 65,-92 89,-133 l 100,-7 c -8,13 -18,29 -32,50 -14,21 -30,44 -48,69 -17,25 -35,50 -53,77 -18,27 -35,53 -50,77 -15,25 -28,47 -37,67 -10,21 -15,36 -15,48 0,17 9,26 26,26 12,0 30,-8 55,-25 25,-16 55,-44 91,-82 23,-24 41,-43 54,-57 13,-14 23,-24 29,-31 6,-7 10,-11 12,-13 1,-2 3,-3 5,-3 5,0 8,2 8,7 0,1 -3,6 -10,14 -6,7 -14,17 -23,27 -9,10 -19,21 -30,33 -11,11 -21,21 -29,31 -39,40 -72,70 -99,89 -26,19 -50,29 -71,29 -13,0 -24,-3 -33,-10 -9,-7 -16,-16 -20,-26 -5,-10 -8,-21 -10,-33 -1,-11 -2,-21 -2,-31 0,-19 4,-39 11,-59 l -3,-3 c -12,13 -26,28 -42,46 -17,18 -35,36 -55,53 -19,17 -39,32 -59,44 -21,13 -40,19 -57,19 -25,0 -43,-8 -55,-24 -11,-16 -17,-36 -17,-60 0,-29 6,-57 17,-83 10,-27 24,-52 41,-75 16,-23 34,-46 53,-68 18,-23 35,-45 49,-67 l -3,-3 c -23,18 -46,40 -70,66 -25,26 -49,51 -73,76 -10,11 -16,19 -18,22 -3,3 -5,4 -8,4 -4,0 -6,-3 -6,-9 0,-1 0,-3 2,-5 1,-3 5,-7 10,-14 5,-6 13,-14 24,-25 11,-11 25,-26 43,-45 15,-16 33,-34 54,-54 20,-20 43,-41 70,-62 l 87,-7 z"
         id="path3362"
         inkscape:connector-curvature="0"
         style="fill:#2b2a29;fill-rule:nonzero" /><path
         class="fil0"
         d="m 12272,15067 c 5,-9 15,-24 29,-45 14,-21 30,-45 49,-71 19,-26 38,-54 58,-83 20,-29 39,-56 55,-82 17,-25 31,-48 42,-68 11,-19 16,-33 16,-42 0,-8 -2,-14 -7,-17 -5,-4 -10,-6 -16,-6 -22,0 -45,9 -70,27 -24,18 -56,49 -95,93 -19,20 -33,35 -43,47 -10,11 -17,20 -22,25 -4,6 -8,10 -9,11 -2,2 -3,2 -4,2 -5,0 -8,-3 -8,-9 0,-1 2,-4 6,-10 5,-6 10,-12 16,-19 6,-6 13,-14 19,-21 7,-8 13,-15 18,-21 38,-44 72,-79 105,-105 32,-26 63,-39 93,-39 21,0 35,7 44,21 9,13 13,32 13,56 0,15 -3,32 -10,50 -8,18 -16,36 -26,54 -10,18 -21,34 -32,50 -11,17 -21,30 -30,42 l 4,3 c 15,-15 37,-37 64,-68 28,-30 57,-61 88,-92 31,-30 62,-57 92,-81 30,-23 55,-35 74,-35 20,0 34,8 43,25 9,16 13,32 13,49 0,27 -6,51 -18,73 -13,23 -26,43 -39,60 -70,95 -104,153 -104,176 0,8 2,16 6,22 4,6 10,9 19,9 17,0 41,-12 71,-36 30,-25 61,-54 93,-88 20,-21 35,-37 46,-49 10,-12 17,-21 22,-27 5,-5 8,-9 9,-11 2,-1 4,-2 6,-2 4,0 6,3 6,8 0,2 -4,8 -12,19 -9,10 -18,21 -29,34 -11,12 -22,24 -33,36 -11,11 -19,19 -24,24 -34,35 -65,62 -92,81 -27,20 -49,30 -67,30 -23,0 -41,-10 -52,-29 -11,-19 -16,-43 -16,-71 0,-31 9,-62 26,-92 18,-31 37,-59 58,-86 21,-26 40,-50 58,-71 17,-20 26,-36 26,-46 0,-13 -7,-19 -22,-19 -12,0 -30,8 -53,25 -22,17 -47,38 -74,64 -27,26 -55,54 -84,86 -29,32 -57,63 -83,93 -26,30 -49,57 -68,81 -20,25 -33,43 -41,56 l -104,9 z m 1069,-414 c -32,0 -64,13 -98,37 -33,25 -64,56 -92,92 -28,37 -51,75 -69,115 -19,39 -28,74 -28,103 0,13 4,25 10,34 7,10 17,14 31,14 18,0 39,-6 61,-19 23,-13 45,-30 66,-50 22,-20 43,-43 63,-68 19,-25 37,-49 52,-74 15,-25 27,-49 36,-71 10,-22 14,-41 14,-55 0,-18 -3,-32 -9,-42 -6,-11 -19,-16 -37,-16 z m 228,-12 -261,432 3,3 c 22,-9 44,-21 67,-36 23,-15 45,-32 67,-51 22,-19 43,-38 63,-59 20,-21 38,-41 55,-61 12,-14 20,-24 23,-28 3,-4 7,-6 10,-6 4,0 6,3 6,8 0,4 -4,10 -11,19 -7,8 -22,24 -45,49 -42,47 -85,87 -131,121 -45,34 -84,56 -116,68 -10,19 -23,44 -40,74 -17,30 -37,62 -59,96 -23,34 -47,67 -73,100 -27,33 -53,64 -80,90 -27,27 -54,49 -81,67 -27,17 -53,25 -77,25 -22,0 -41,-6 -56,-19 -14,-13 -21,-33 -21,-60 0,-31 9,-61 28,-89 18,-28 45,-56 81,-85 35,-29 78,-59 129,-90 50,-30 109,-64 174,-102 11,-26 25,-55 41,-88 16,-34 39,-78 68,-134 l -3,-3 c -12,15 -26,34 -44,55 -18,21 -37,41 -58,61 -21,19 -44,35 -66,49 -23,13 -45,20 -67,20 -37,0 -62,-13 -76,-37 -14,-25 -21,-58 -21,-98 0,-20 2,-36 6,-47 3,-12 5,-23 5,-34 0,-3 -2,-5 -6,-5 -5,0 -9,2 -11,5 -2,4 -4,6 -6,6 -4,0 -6,-3 -6,-9 0,-3 3,-7 8,-14 6,-6 20,-22 41,-46 18,-18 39,-37 63,-55 25,-18 50,-34 77,-49 27,-14 54,-26 81,-36 27,-9 52,-14 75,-14 25,0 45,6 59,18 15,11 22,30 22,57 0,23 -2,41 -6,55 l 3,3 c 10,-17 21,-35 32,-56 12,-20 23,-41 33,-63 l 101,-7 z m -717,833 c 0,18 2,32 7,43 5,11 17,17 38,17 20,0 40,-8 62,-24 21,-15 42,-35 64,-60 22,-24 43,-51 63,-82 20,-31 39,-61 56,-90 17,-30 32,-58 44,-84 12,-25 20,-46 25,-62 -25,16 -59,35 -99,59 -41,24 -80,51 -118,81 -39,30 -72,62 -100,97 -28,34 -42,69 -42,105 z m 1174,-765 c 0,29 -12,55 -37,79 -25,23 -54,43 -89,60 -34,17 -69,32 -105,43 -37,12 -66,19 -89,23 -2,9 -4,17 -5,26 -1,9 -1,17 -1,26 0,30 5,51 14,63 10,12 27,18 51,19 21,1 50,-7 89,-25 38,-19 81,-51 129,-98 30,-31 50,-54 61,-68 11,-15 18,-22 21,-22 5,0 8,3 8,9 0,3 -3,8 -10,16 -7,8 -15,18 -26,30 -10,12 -22,25 -35,38 -13,14 -25,26 -36,36 -40,37 -76,62 -108,78 -33,16 -68,24 -104,25 -22,0 -40,-5 -55,-14 -15,-9 -28,-22 -38,-37 -11,-16 -18,-34 -23,-53 -4,-20 -7,-40 -7,-61 0,-11 1,-21 3,-30 1,-8 2,-13 2,-15 0,-1 -1,-2 -2,-3 -3,3 -4,4 -4,4 -1,0 -3,-1 -5,-3 -2,-2 -3,-4 -3,-6 0,-1 2,-5 7,-11 5,-6 10,-13 17,-20 7,-7 13,-14 19,-21 7,-7 11,-12 14,-15 44,-43 89,-79 136,-106 46,-28 91,-42 134,-42 23,0 42,7 56,21 14,14 21,32 21,54 z m -77,-56 c -21,0 -44,9 -69,26 -25,17 -49,38 -72,63 -24,25 -44,51 -62,79 -17,28 -29,53 -34,75 26,-3 55,-11 86,-23 31,-12 60,-27 87,-46 27,-20 49,-41 67,-66 19,-24 28,-50 28,-78 0,-20 -11,-30 -31,-30 z"
         id="path3364"
         inkscape:connector-curvature="0"
         style="fill:#2b2a29;fill-rule:nonzero" /></g></g></svg>